<?xml version="1.0" encoding="UTF-8" standalone="no"?>
<!DOCTYPE svg PUBLIC "-//W3C//DTD SVG 1.1//EN" "http://www.w3.org/Graphics/SVG/1.1/DTD/svg11.dtd">
<svg width="100%" height="100%" viewBox="0 0 800 800" version="1.1" xmlns="http://www.w3.org/2000/svg" xmlns:xlink="http://www.w3.org/1999/xlink" xml:space="preserve" xmlns:serif="http://www.serif.com/" style="fill-rule:evenodd;clip-rule:evenodd;stroke-linecap:round;stroke-linejoin:round;stroke-miterlimit:1.5;">
    <g transform="matrix(1,0,0,1,-903.16,0)">
        <g id="圆角方形" transform="matrix(0.810968,0,0,0.810968,-83.5999,0)">
            <rect x="1216.77" y="0" width="986.476" height="986.476" style="fill:none;"/>
            <clipPath id="_clip1">
                <rect x="1216.77" y="0" width="986.476" height="986.476"/>
            </clipPath>
            <g clip-path="url(#_clip1)">
                <g transform="matrix(1.30562,0,0,1.30562,-258.253,-1758.45)">
                    <path d="M1885.31,1535.73L1885.31,1913.51C1885.31,2017.76 1801.47,2102.4 1698.2,2102.4L1316.86,2102.4C1213.59,2102.4 1129.75,2017.76 1129.75,1913.51L1129.75,1535.73C1129.75,1431.48 1213.59,1346.84 1316.86,1346.84L1698.2,1346.84C1797.94,1346.84 1885.31,1435.04 1885.31,1535.73Z" style="fill:rgb(131,123,253);"/>
                </g>
                <g transform="matrix(1.24034,0,0,1.24034,-159.84,-1645.87)">
                    <path d="M1885.31,1535.73L1885.31,1913.51C1885.31,2017.76 1801.47,2102.4 1698.2,2102.4L1316.86,2102.4C1213.59,2102.4 1129.75,2017.76 1129.75,1913.51L1129.75,1535.73C1129.75,1431.48 1213.59,1346.84 1316.86,1346.84L1698.2,1346.84C1797.94,1346.84 1885.31,1435.04 1885.31,1535.73Z" style="fill:rgb(131,123,253);fill-opacity:0;stroke:white;stroke-opacity:0.76;stroke-width:14.5px;"/>
                </g>
                <g transform="matrix(1.19494,-0.304379,0.304379,1.19494,-601.19,-1153.88)">
                    <g>
                        <g transform="matrix(0.534069,0.00996271,-0.00932556,0.499913,732.419,717.526)">
                            <path d="M1848.02,1518.46C1858.41,1518.46 1940.4,1650.65 1874.82,1677.84C1762.89,1724.25 1566.99,1715.3 1420.54,1677.84C1410.14,1677.84 1401.71,1668.83 1401.71,1657.73L1401.71,1617.5C1401.71,1606.39 1410.14,1597.38 1420.54,1597.38C1575.58,1653.29 1719.79,1638.19 1848.02,1518.46Z" style="fill:white;"/>
                        </g>
                        <g transform="matrix(0.465222,0.0949875,-0.100025,0.489893,983.776,672.683)">
                            <path d="M1900.34,1566.56C1923.54,1629.41 1885.22,1677.84 1874.82,1677.84C1718.06,1717.98 1566.99,1715.3 1420.54,1677.84C1410.14,1677.84 1401.71,1668.83 1401.71,1657.73L1401.71,1617.5C1401.71,1606.39 1410.14,1597.38 1420.54,1597.38C1589.07,1638.31 1786.44,1612.99 1900.34,1566.56Z" style="fill:white;"/>
                        </g>
                        <g transform="matrix(1.19551,-5.5797e-17,0,1.20344,-287.847,-379.295)">
                            <circle cx="1393.75" cy="1909.78" r="103.306" style="fill:white;"/>
                        </g>
                        <g transform="matrix(1,-2.82437e-17,-2.77556e-17,1.01759,0.755662,-6.82919)">
                            <path d="M1501.13,1515.94L1501.13,1886.38C1501.13,1892.03 1496.47,1896.61 1490.72,1896.61L1469.92,1896.61C1464.18,1896.61 1459.52,1892.03 1459.52,1886.38L1459.52,1515.94C1459.52,1510.29 1464.18,1505.71 1469.92,1505.71L1490.72,1505.71C1496.47,1505.71 1501.13,1510.29 1501.13,1515.94Z" style="fill:white;"/>
                        </g>
                    </g>
                </g>
            </g>
        </g>
    </g>
</svg>
