<?xml version="1.0" encoding="UTF-8" standalone="no"?>
<!DOCTYPE svg PUBLIC "-//W3C//DTD SVG 1.1//EN" "http://www.w3.org/Graphics/SVG/1.1/DTD/svg11.dtd">
<svg width="100%" height="100%" viewBox="0 0 300 60" version="1.1" xmlns="http://www.w3.org/2000/svg" xmlns:xlink="http://www.w3.org/1999/xlink" xml:space="preserve" xmlns:serif="http://www.serif.com/" style="fill-rule:evenodd;clip-rule:evenodd;stroke-linejoin:round;stroke-miterlimit:2;">
    <g id="画板1" transform="matrix(0.871429,0,0,0.175856,-126.136,-26.8643)">
        <rect x="144.747" y="152.763" width="344.262" height="341.189" style="fill:none;"/>
        <g transform="matrix(1.14754,0,0,5.68648,146.776,97.3164)">
            <g transform="matrix(50,0,0,50,17.6565,56.7756)">
                <path d="M0.407,0.015C0.634,0.015 0.794,-0.133 0.794,-0.366C0.794,-0.593 0.637,-0.727 0.422,-0.727C0.194,-0.727 0.034,-0.577 0.034,-0.346C0.034,-0.118 0.191,0.015 0.407,0.015ZM0.15,-0.382C0.15,-0.613 0.264,-0.713 0.395,-0.713C0.546,-0.713 0.678,-0.581 0.678,-0.331C0.678,-0.099 0.563,0.001 0.432,0.001C0.281,0.001 0.15,-0.131 0.15,-0.382Z" style="fill-rule:nonzero;"/>
            </g>
            <g transform="matrix(50,0,0,50,57.9065,56.7756)">
                <path d="M0.46,0.026L0.462,0.026L0.733,-0.652L0.802,-0.025L0.727,-0.005L0.727,-0L0.972,-0L0.972,-0.005L0.908,-0.025L0.834,-0.687L0.907,-0.707L0.907,-0.712L0.746,-0.712L0.502,-0.136L0.259,-0.712L0.079,-0.712L0.079,-0.707L0.154,-0.683L0.077,-0.025L0.013,-0.005L0.013,-0L0.258,-0L0.258,-0.005L0.241,-0.008C0.134,-0.03 0.099,-0.074 0.133,-0.385L0.165,-0.673L0.46,0.026Z" style="fill-rule:nonzero;"/>
            </g>
            <g transform="matrix(50,0,0,50,106.407,56.7756)">
                <path d="M0.203,0.015C0.256,0.015 0.32,-0.024 0.401,-0.084L0.401,0.015L0.402,0.015L0.557,-0.039L0.557,-0.044L0.498,-0.045L0.498,-0.523L0.497,-0.523L0.341,-0.47L0.341,-0.465L0.401,-0.453L0.401,-0.096C0.349,-0.06 0.311,-0.041 0.264,-0.041C0.208,-0.041 0.169,-0.075 0.169,-0.144L0.169,-0.523L0.168,-0.523L0.015,-0.47L0.015,-0.465L0.072,-0.453L0.072,-0.128C0.072,-0.04 0.123,0.015 0.203,0.015Z" style="fill-rule:nonzero;"/>
            </g>
            <g transform="matrix(50,0,0,50,145.807,56.7756)">
                <path d="M0.019,-0L0.275,-0L0.275,-0.005L0.194,-0.025L0.194,-0.701L0.286,-0.701C0.386,-0.701 0.459,-0.645 0.459,-0.515C0.459,-0.394 0.394,-0.339 0.3,-0.339C0.282,-0.339 0.268,-0.341 0.259,-0.342L0.259,-0.334C0.267,-0.333 0.285,-0.329 0.318,-0.329C0.456,-0.329 0.568,-0.389 0.568,-0.524C0.568,-0.638 0.484,-0.712 0.306,-0.712L0.019,-0.712L0.019,-0.707L0.088,-0.687L0.088,-0.025L0.019,-0.005L0.019,-0Z" style="fill:rgb(131,122,255);fill-rule:nonzero;"/>
            </g>
            <g transform="matrix(50,0,0,50,175.357,56.7756)">
                <path d="M0.015,-0L0.23,-0L0.23,-0.005L0.171,-0.025L0.171,-0.766L0.17,-0.766L0.015,-0.712L0.015,-0.707L0.074,-0.696L0.074,-0.025L0.015,-0.005L0.015,-0Z" style="fill-rule:nonzero;"/>
            </g>
            <g transform="matrix(50,0,0,50,187.957,56.7756)">
                <path d="M0.143,0.015C0.218,0.015 0.272,-0.034 0.298,-0.087L0.298,-0.068C0.298,-0.016 0.325,0.012 0.369,0.012C0.404,0.012 0.438,-0.008 0.477,-0.03L0.477,-0.035C0.463,-0.029 0.452,-0.025 0.435,-0.025C0.412,-0.025 0.395,-0.041 0.395,-0.066L0.395,-0.381C0.395,-0.473 0.335,-0.523 0.258,-0.523C0.218,-0.523 0.181,-0.507 0.123,-0.468C0.061,-0.425 0.042,-0.4 0.042,-0.373C0.042,-0.346 0.06,-0.331 0.087,-0.331C0.107,-0.331 0.12,-0.339 0.126,-0.344C0.12,-0.36 0.114,-0.381 0.114,-0.404C0.114,-0.456 0.153,-0.489 0.21,-0.489C0.264,-0.489 0.298,-0.46 0.298,-0.379L0.298,-0.236L0.096,-0.152C0.033,-0.126 0.019,-0.109 0.019,-0.08C0.019,-0.033 0.064,0.015 0.143,0.015ZM0.11,-0.11C0.11,-0.135 0.123,-0.15 0.17,-0.17L0.298,-0.224L0.298,-0.106C0.285,-0.07 0.247,-0.037 0.199,-0.037C0.145,-0.037 0.11,-0.07 0.11,-0.11Z" style="fill-rule:nonzero;"/>
            </g>
            <g transform="matrix(50,0,0,50,210.607,56.7756)">
                <path d="M0.069,0.205C0.122,0.205 0.188,0.155 0.265,-0.025L0.462,-0.486L0.501,-0.503L0.501,-0.508L0.323,-0.508L0.323,-0.503L0.333,-0.501C0.408,-0.486 0.428,-0.446 0.339,-0.228L0.292,-0.114L0.125,-0.486L0.186,-0.503L0.186,-0.508L-0.022,-0.508L-0.022,-0.503L0.017,-0.486L0.241,-0C0.2,0.095 0.172,0.119 0.122,0.119C0.09,0.119 0.06,0.11 0.035,0.099C0.025,0.11 0.015,0.129 0.015,0.152C0.015,0.184 0.035,0.205 0.069,0.205Z" style="fill-rule:nonzero;"/>
            </g>
            <g transform="matrix(50,0,0,50,233.757,56.7756)">
                <path d="M0.264,0.015C0.418,0.015 0.469,-0.088 0.493,-0.185L0.487,-0.187C0.46,-0.097 0.417,-0.053 0.325,-0.053C0.201,-0.053 0.118,-0.147 0.118,-0.308C0.118,-0.335 0.12,-0.36 0.125,-0.382L0.465,-0.382C0.458,-0.462 0.391,-0.523 0.281,-0.523C0.134,-0.523 0.02,-0.409 0.02,-0.239C0.02,-0.084 0.12,0.015 0.264,0.015ZM0.128,-0.392C0.146,-0.465 0.19,-0.509 0.253,-0.509C0.314,-0.509 0.354,-0.465 0.363,-0.396L0.128,-0.392Z" style="fill-rule:nonzero;"/>
            </g>
            <g transform="matrix(50,0,0,50,258.607,56.7756)">
                <path d="M0.015,-0L0.243,-0L0.243,-0.005L0.171,-0.025L0.171,-0.424C0.194,-0.443 0.221,-0.454 0.253,-0.454C0.289,-0.454 0.325,-0.439 0.351,-0.425C0.361,-0.434 0.37,-0.449 0.37,-0.471C0.37,-0.504 0.349,-0.523 0.317,-0.523C0.266,-0.523 0.211,-0.476 0.171,-0.436L0.171,-0.523L0.17,-0.523L0.015,-0.468L0.015,-0.463L0.074,-0.451L0.074,-0.025L0.015,-0.005L0.015,-0Z" style="fill-rule:nonzero;"/>
            </g>
        </g>
    </g>
</svg>
